<?xml version="1.0" standalone="no"?>
<!DOCTYPE svg PUBLIC "-//W3C//DTD SVG 20010904//EN"
 "http://www.w3.org/TR/2001/REC-SVG-20010904/DTD/svg10.dtd">
<svg version="1.0" xmlns="http://www.w3.org/2000/svg"
 width="500.000000pt" height="500.000000pt" viewBox="0 0 500.000000 500.000000"
 preserveAspectRatio="xMidYMid meet">
<metadata>
Created by potrace 1.14, written by Peter Selinger 2001-2017
</metadata>
<g transform="translate(0.000000,500.000000) scale(0.100000,-0.100000)"
fill="#000000" stroke="none">
<path d="M2458 4888 c-16 -5 -28 -14 -28 -19 0 -5 -4 -9 -9 -9 -5 0 -65 -32
-133 -71 -67 -39 -143 -83 -167 -97 -25 -14 -68 -38 -95 -55 -28 -16 -67 -39
-86 -50 -19 -11 -48 -28 -65 -38 -16 -11 -37 -22 -45 -26 -8 -4 -46 -26 -85
-48 -38 -23 -90 -53 -115 -67 -25 -14 -73 -42 -107 -62 -34 -20 -66 -36 -71
-36 -6 0 -12 -4 -14 -8 -1 -4 -23 -19 -48 -33 -25 -14 -116 -67 -204 -117 -87
-51 -162 -92 -166 -92 -5 0 -10 -3 -12 -7 -4 -10 -76 -52 -101 -60 -9 -3 -17
-9 -17 -14 0 -5 -5 -9 -10 -9 -16 0 -422 -238 -445 -261 -20 -19 -20 -33 -21
-1203 0 -651 3 -1193 8 -1205 4 -11 22 -30 40 -40 18 -11 38 -24 43 -28 6 -5
24 -16 40 -24 32 -17 67 -37 150 -86 28 -16 82 -47 120 -68 39 -21 72 -41 75
-44 3 -4 16 -12 30 -19 14 -6 39 -20 55 -30 17 -9 62 -35 100 -57 39 -21 72
-41 75 -44 3 -4 19 -13 35 -21 17 -8 64 -36 105 -61 42 -25 90 -52 108 -60 17
-7 32 -17 32 -21 0 -5 4 -8 9 -8 5 0 67 -34 136 -75 70 -41 129 -75 131 -75 2
0 28 -16 58 -35 30 -19 57 -35 60 -35 2 0 50 -27 106 -60 56 -33 103 -60 105
-60 2 0 56 -31 121 -70 64 -38 118 -70 121 -70 2 0 20 -11 41 -23 149 -94 199
-106 264 -62 20 14 39 25 42 25 10 0 111 64 118 74 4 6 8 8 8 4 0 -4 57 27
126 68 69 41 127 74 129 74 2 0 49 27 105 60 56 33 103 60 106 60 2 0 28 16
58 35 30 19 60 35 66 35 5 0 10 5 10 10 0 6 5 10 10 10 6 0 54 25 108 56 53
31 113 66 132 76 19 11 40 24 45 28 6 4 30 19 55 32 61 34 105 59 166 95 27
17 70 42 95 55 84 48 234 135 334 193 55 32 109 63 120 69 104 58 155 93 164
113 8 17 11 377 11 1208 l0 1183 -31 31 c-17 17 -35 31 -41 31 -5 0 -22 8 -36
19 -15 10 -63 39 -107 63 -44 25 -150 85 -235 135 -311 180 -426 246 -470 271
-25 14 -62 36 -82 49 -21 12 -42 23 -48 23 -5 0 -10 4 -10 9 0 5 -8 11 -17 14
-10 4 -45 22 -78 42 -33 19 -79 45 -102 57 -24 12 -43 26 -43 30 0 4 -5 8 -11
8 -6 0 -38 16 -70 36 -32 19 -60 34 -63 32 -2 -2 -12 4 -22 12 -11 8 -30 21
-44 29 -14 8 -63 37 -110 64 -47 27 -101 59 -120 70 -19 11 -48 28 -65 38
-128 77 -266 149 -284 148 -9 0 -28 -5 -43 -11z m122 -248 c3 -3 14 -10 25
-16 25 -14 104 -57 136 -75 13 -8 27 -18 31 -24 4 -5 8 -6 8 -2 0 4 20 -6 44
-23 25 -16 47 -30 50 -30 3 0 35 -18 71 -40 36 -22 69 -40 74 -40 5 0 11 -3
13 -7 2 -5 28 -21 58 -37 30 -16 57 -32 60 -36 3 -3 31 -19 62 -35 32 -17 58
-33 58 -37 0 -5 5 -8 11 -8 6 0 48 -22 95 -50 47 -27 87 -50 90 -50 3 0 30
-16 60 -35 30 -19 57 -35 60 -35 3 0 30 -16 60 -35 30 -19 56 -35 58 -35 2 0
48 -26 103 -58 110 -66 207 -121 240 -136 13 -6 23 -14 23 -18 0 -5 5 -8 10
-8 6 0 29 -12 51 -26 36 -22 85 -50 154 -88 11 -6 22 -13 25 -16 3 -3 23 -15
45 -27 l40 -22 2 -1093 c2 -1018 1 -1095 -15 -1104 -19 -12 -197 -115 -252
-147 -19 -10 -75 -43 -125 -72 -49 -29 -106 -62 -125 -73 -92 -51 -379 -218
-412 -239 -21 -12 -40 -23 -43 -23 -2 0 -29 -16 -59 -35 -30 -19 -58 -35 -61
-35 -3 0 -34 -18 -69 -40 -35 -22 -68 -40 -75 -40 -6 0 -11 -5 -11 -12 0 -6
-3 -9 -6 -5 -4 3 -21 -5 -39 -18 -17 -14 -35 -25 -38 -25 -3 0 -56 -29 -117
-65 -61 -36 -130 -76 -153 -89 -23 -13 -98 -55 -166 -95 -68 -39 -125 -71
-128 -71 -3 0 -53 28 -112 61 -58 34 -119 69 -136 79 -16 9 -54 31 -83 49 -29
17 -57 31 -62 31 -6 0 -10 5 -10 10 0 6 -4 10 -9 10 -5 0 -42 19 -83 43 -71
43 -120 70 -215 123 -27 15 -52 30 -58 34 -5 5 -39 25 -75 45 -78 45 -72 41
-330 190 -113 65 -222 129 -242 142 -21 12 -40 23 -42 23 -2 0 -50 27 -105 60
-56 33 -106 60 -111 60 -6 0 -10 5 -10 10 0 6 -4 10 -9 10 -5 0 -52 25 -105
56 -73 43 -96 61 -97 78 0 11 0 502 0 1090 l0 1070 23 17 c19 15 115 71 557
325 306 177 453 261 483 281 21 12 40 23 42 23 2 0 88 49 190 109 102 60 186
106 186 103 0 -4 4 -2 8 4 4 6 33 25 65 43 32 18 79 45 105 61 26 16 69 40 96
55 26 14 69 39 94 55 l45 28 36 -21 c20 -12 38 -24 41 -27z"/>
<path d="M1724 3801 c-2 -2 -4 -602 -4 -1333 l0 -1328 155 0 155 0 0 524 c0
499 1 526 18 538 11 7 54 45 98 85 141 127 158 141 167 136 5 -3 88 -111 185
-242 97 -130 179 -238 182 -241 3 -3 97 -129 210 -280 113 -151 207 -277 210
-280 3 -3 45 -58 94 -122 l88 -118 180 0 c141 0 178 3 172 13 -8 12 -311 426
-508 692 -62 83 -154 208 -206 279 -52 71 -159 215 -237 320 -78 105 -142 196
-142 201 0 6 20 33 46 60 25 28 94 101 152 164 58 63 111 119 116 125 63 69
392 424 431 466 28 30 73 79 100 109 27 29 86 92 131 140 45 47 79 88 77 91
-3 2 -84 5 -180 5 l-175 1 -32 -36 c-17 -19 -56 -62 -87 -95 -30 -33 -95 -105
-145 -159 -49 -55 -95 -104 -100 -110 -6 -6 -83 -90 -170 -186 -88 -96 -164
-180 -170 -186 -5 -6 -53 -58 -105 -115 -52 -57 -120 -131 -151 -164 -30 -33
-75 -82 -100 -109 -24 -27 -67 -74 -96 -105 l-52 -56 -1 660 0 660 -151 0
c-82 1 -152 -1 -155 -4z"/>
</g>
</svg>
